<svg width="104" height="46" viewBox="0 0 104 46" fill="none" xmlns="http://www.w3.org/2000/svg">
<g clip-path="url(#clip0_1937_5568)">
<path d="M7.8933 42.7417C5.44146 42.737 3.71363 41.1625 3.71363 38.928C3.71363 36.695 5.44146 35.1271 7.8933 35.1319C9.76915 35.1355 11.2728 35.9524 11.5146 37.0895L15.303 37.0967C15.0433 34.1239 11.9792 32.0166 7.8933 32.0088C3.26812 32 0 34.8705 0 38.9212C0 42.9719 3.26812 45.8548 7.8933 45.8636C11.9792 45.8718 15.0436 43.7772 15.303 40.8054L11.5146 40.7982C11.2728 41.9343 9.76915 42.7455 7.8933 42.7417Z" fill="#1E1C1B"/>
<path d="M24.4764 32.0398C19.7413 32.0308 16.3984 34.9014 16.3984 38.9518C16.3984 43.0021 19.7413 45.8855 24.4764 45.8946C29.213 45.9036 32.5734 43.033 32.5734 38.9826C32.5734 34.9322 29.213 32.0487 24.4764 32.0398ZM24.4764 42.773C21.9133 42.7681 20.1121 41.1933 20.1121 38.9589C20.1121 36.7259 21.9136 35.1581 24.4764 35.1627C27.0393 35.1674 28.8598 36.7424 28.8598 38.9754C28.8598 41.2098 27.0396 42.7777 24.4764 42.7728V42.773Z" fill="#1E1C1B"/>
<path d="M34.1875 45.6102L37.9011 45.6173V37.4905L34.1875 37.4835V45.6102ZM37.9011 32.3674L35.2325 32.9555C34.9365 33.0208 34.6714 33.1873 34.4813 33.4275C34.2912 33.6677 34.1875 33.9669 34.1875 34.2755V35.591L37.9011 35.5981V32.3674Z" fill="#1E1C1B"/>
<path d="M51.8782 32.3927V41.7457L47.8405 34.3032C47.5249 33.7209 47.0623 33.2352 46.5006 32.8964C45.9389 32.5576 45.2985 32.378 44.6458 32.3762H43.2844C42.8195 32.3753 42.359 32.4679 41.9293 32.6486C41.4996 32.8292 41.1091 33.0945 40.7801 33.4292C40.4511 33.7639 40.19 34.1614 40.0119 34.599C39.8339 35.0366 39.7422 35.5057 39.7422 35.9795V45.6198L43.4558 45.6268V36.5459C43.4557 36.3979 43.504 36.2542 43.5929 36.1373C43.6819 36.0204 43.8065 35.937 43.9471 35.9003C44.0877 35.8636 44.2363 35.8756 44.3695 35.9345C44.5026 35.9934 44.6127 36.0958 44.6825 36.2255L49.7884 45.6391L55.5918 45.6501V32.3997L51.8782 32.3927Z" fill="#1E1C1B"/>
<path d="M65.0763 32.1133C60.3222 32.1043 57.3516 34.7677 57.3516 39.026V45.6516L61.0652 45.6587V42.9329L67.2307 42.9446V39.4436L61.0652 39.4318V39.033C61.0652 36.706 62.607 35.2318 65.0763 35.2365C67.4929 35.2411 69.0215 36.6569 69.086 38.8975C69.0889 38.9471 69.0889 38.9975 69.0889 39.0483V45.674L72.8025 45.6811V39.0554C72.8025 34.7971 69.8319 32.1224 65.0763 32.1133Z" fill="#1E1C1B"/>
<path d="M82.2462 41.2112L86.1269 41.2186C85.7562 42.241 84.6424 42.8827 82.3941 42.8784C79.4601 42.8727 78.0298 41.2987 78.0298 39.0643C78.0298 36.8312 79.4601 35.2628 82.3941 35.2681C84.7712 35.2727 85.9597 36.089 86.2015 37.2261L89.9899 37.2333C89.7302 34.2605 86.9636 32.1537 82.3943 32.145C77.287 32.1353 74.3164 35.0066 74.3164 39.057C74.3164 43.1074 77.287 45.99 82.3943 45.9997C87.2233 46.009 89.9725 43.6871 89.9725 40.3743V38.3686L82.2463 38.3539L82.2462 41.2112Z" fill="#1E1C1B"/>
<path d="M95.2151 42.5989V40.6108L103.218 40.6261V37.503L91.5003 37.4806V45.7149L103.869 45.7385V42.6153L95.2151 42.5989ZM91.5 32.4651V35.5883L103.777 35.6117V32.4885L91.5 32.4651Z" fill="#1E1C1B"/>
<path d="M66.8818 38.8944V39.0453C66.8818 38.9945 66.8818 38.9437 66.8789 38.8944H66.8818Z" fill="#1E1C1B"/>
<g opacity="0.6">
<path opacity="0.6" d="M63.9599 0L61.2706 23.2153H54.1719L56.8469 0.120252L56.8612 0H63.9599Z" fill="#FF4517"/>
</g>
<g opacity="0.8">
<path opacity="0.8" d="M55.3661 0L52.6768 23.2153H45.5781L48.253 0.120252L48.2674 0H55.3661Z" fill="#FF4517"/>
</g>
<path d="M46.7716 0L44.0823 23.2152H34.1172C27.2975 23.2152 22.0065 17.1485 22.8068 10.2471C23.1342 7.424 24.4665 4.82144 26.5512 2.93276C28.6358 1.04408 31.328 0.000559688 34.1173 0L46.7716 0Z" fill="#FF4517"/>
<path opacity="0.2" d="M81.1435 0L78.4542 23.2153H71.3555L74.0304 0.120252L74.0447 0H81.1435Z" fill="#FF4517"/>
<g opacity="0.4">
<path opacity="0.4" d="M72.5498 0L69.8605 23.2153H62.7617L65.4367 0.120252L65.4511 0H72.5498Z" fill="#FF4517"/>
</g>
</g>
<defs>
<clipPath id="clip0_1937_5568">
<rect width="103.871" height="46" fill="white"/>
</clipPath>
</defs>
</svg>
