<svg id="Icons" xmlns="http://www.w3.org/2000/svg" viewBox="0 0 70 70"><defs><style>.cls-1{fill:#1c1c1c;}</style></defs><path class="cls-1" d="M3,55.6A37.365,37.365,0,0,0,60.1,23.881c0-.531-.009-1.056-.036-1.577,2.821-1.658,5.474-3.7,6.936-6.633a9.282,9.282,0,0,1-5.994,1.08c1.724-1.5,2.248-2.834,3.242-4.924a15.148,15.148,0,0,0,.664-1.591,17.579,17.579,0,0,1-6.377,2.919,17.069,17.069,0,0,1-2.1.352A13.047,13.047,0,0,0,44.2,9.4c-.285.054-.57.12-.846.2a13.061,13.061,0,0,0-6.894,4.541,4.822,4.822,0,0,0-.321.428c-.111.142-.209.289-.307.436a12.988,12.988,0,0,0-2.17,7.21,27.212,27.212,0,0,0,.361,3.156c-1.676.352-4.061-.392-5.673-.873-5.474-1.633-9.956-5.073-14.222-8.728A51.119,51.119,0,0,1,6.956,8.764a2.266,2.266,0,0,0-.877,1.756,52.983,52.983,0,0,0-.9,8.317v.031a13.024,13.024,0,0,0,5.24,10.422c-1.907-.151-4.19-.172-5.736-1.112,0,.08,0,.161,0,.241,0,3.676,2.02,6.41,4.467,8.777A12.95,12.95,0,0,0,15.16,40.52a3.447,3.447,0,0,1-2.768,1.108,23.446,23.446,0,0,1-3.7-.318c1.421,5.477,7.176,8.843,13.049,9.04A33.5,33.5,0,0,1,4,55.584C3.8,55.586,3.514,55.59,3,55.6Zm.714.005c-.016,0-.03,0-.046,0C3.634,55.608,3.664,55.606,3.714,55.6Z"/></svg>