<svg width="44" height="41" viewBox="0 0 44 41" fill="none" xmlns="http://www.w3.org/2000/svg">
<circle cx="22" cy="20.0718" r="20" fill="#FF0000"/>
<path d="M35.2974 13.0143C34.9782 11.8124 34.0378 10.8658 32.8434 10.5445C30.679 9.96069 21.9992 9.96069 21.9992 9.96069C21.9992 9.96069 13.3196 9.96069 11.1551 10.5445C9.9607 10.8658 9.02002 11.8124 8.70102 13.0143C8.12109 15.1929 8.12109 19.7385 8.12109 19.7385C8.12109 19.7385 8.12109 24.2839 8.70102 26.4627C9.02002 27.6648 9.9607 28.6112 11.155 28.9328C13.3195 29.5164 21.9991 29.5164 21.9991 29.5164C21.9991 29.5164 30.6788 29.5164 32.8432 28.9328C34.0376 28.6113 34.9781 27.6648 35.2973 26.4629C35.8774 24.284 35.8774 19.7387 35.8774 19.7387C35.8774 19.7387 35.8774 15.193 35.2973 13.0144" fill="white"/>
<path d="M19.1602 23.8656L26.4146 19.7388L19.1602 15.6116V23.8656Z" fill="#FF0000"/>
</svg>
